<svg xmlns="http://www.w3.org/2000/svg" xmlns:xlink="http://www.w3.org/1999/xlink" xmlns:lucid="lucid" width="483.09" height="978.87"><g transform="translate(-780.7851260733987 -100)" lucid:page-tab-id="0_0"><path d="M1058.8 120c13.45 0 24.35 13.05 24.35 29.16 0 16.1-10.9 29.15-24.34 29.15H985.8c-13.45 0-24.35-13.04-24.35-29.14S972.33 120 985.78 120z" stroke="#fbf0ff" stroke-width="3" fill="#e08fff"/><use xlink:href="#a" transform="matrix(1,0,0,1,966.4322231018232,125) translate(32.72222222222223 28.25)"/><path d="M1022.3 180.8v9.98" stroke="#ba23f6" stroke-width="2" fill="none"/><path d="M1023.3 180.84h-2v-1.03h2z" stroke="#ba23f6" stroke-width=".05" fill="#ba23f6"/><path d="M1022.36 205.97l-4.7-14.25 9.27-.03z" stroke="#ba23f6" stroke-width="2" fill="#ba23f6"/><path d="M1022.37 271.52v9.9" stroke="#ba23f6" stroke-width="2" fill="none"/><path d="M1023.37 271.54h-2v-1.02h2z" stroke="#ba23f6" stroke-width=".05" fill="#ba23f6"/><path d="M1022.37 296.68l-4.63-14.27h9.27z" stroke="#ba23f6" stroke-width="2" fill="#ba23f6"/><path d="M897.57 305a18 18 0 0 1 10.8-3.6h228a18 18 0 0 1 10.8 3.6l70.4 52.8a4.5 4.5 0 0 1 0 7.2l-70.4 52.8a18 18 0 0 1-10.8 3.6h-228a18 18 0 0 1-10.8-3.6l-70.4-52.8a4.5 4.5 0 0 1 0-7.2z" stroke="#fff" stroke-width="3" fill="#e08fff"/><use xlink:href="#b" transform="matrix(1,0,0,1,827.3702007856311,306.41338336460274) translate(21.00500000000003 60.6875)"/><use xlink:href="#c" transform="matrix(1,0,0,1,827.3702007856311,306.41338336460274) translate(84.2827777777778 60.6875)"/><use xlink:href="#d" transform="matrix(1,0,0,1,827.3702007856311,306.41338336460274) translate(94.22722222222224 60.6875)"/><use xlink:href="#e" transform="matrix(1,0,0,1,827.3702007856311,306.41338336460274) translate(111.44944444444445 60.6875)"/><use xlink:href="#f" transform="matrix(1,0,0,1,827.3702007856311,306.41338336460274) translate(133.67166666666668 60.6875)"/><use xlink:href="#c" transform="matrix(1,0,0,1,827.3702007856311,306.41338336460274) translate(191.39388888888888 60.6875)"/><use xlink:href="#g" transform="matrix(1,0,0,1,827.3702007856311,306.41338336460274) translate(201.33833333333334 60.6875)"/><use xlink:href="#h" transform="matrix(1,0,0,1,827.3702007856311,306.41338336460274) translate(230.22722222222222 60.6875)"/><use xlink:href="#i" transform="matrix(1,0,0,1,827.3702007856311,306.41338336460274) translate(252.44944444444445 60.6875)"/><use xlink:href="#j" transform="matrix(1,0,0,1,827.3702007856311,306.41338336460274) translate(357.8938888888889 60.6875)"/><path d="M952.37 216.7a6 6 0 0 1 6-6h128a6 6 0 0 1 6 6v46.32a6 6 0 0 1-6 6h-128a6 6 0 0 1-6-6z" stroke="#fff" stroke-width="3" fill="#e08fff"/><use xlink:href="#k" transform="matrix(1,0,0,1,964.3702007856311,222.70669168230134) translate(16.638888888888893 22.5625)"/><use xlink:href="#d" transform="matrix(1,0,0,1,964.3702007856311,222.70669168230134) translate(71.02777777777777 22.5625)"/><use xlink:href="#l" transform="matrix(1,0,0,1,964.3702007856311,222.70669168230134) translate(88.25 22.5625)"/><path d="M1023.37 440.04h-2V423.9h2z" stroke="#008a0e" stroke-width=".05" fill="#008a0e"/><path d="M1023.37 423.94h-2v-1.03h2z" fill="#008a0e"/><path d="M1023.4 423.96h-2.05v-1.07h2.04zm-2-1.02v.97h1.95v-.96z" stroke="#008a0e" stroke-width=".05" fill="#008a0e"/><path d="M1022.37 475.26l-4.5-13.9h9z" fill="#008a0e"/><path d="M1022.37 478.5l-5.57-17.13h11.13zm-3.26-16.5l3.27 10.03 3.26-10.03z" stroke="#008a0e" stroke-width=".05" fill="#008a0e"/><use xlink:href="#m" transform="matrix(1,0,0,1,1013.9751390572361,440.0400450156346) translate(0.005000000000000782 14.222222222222223)"/><path d="M904.66 486a6 6 0 0 1 6-6h223.42a6 6 0 0 1 6 6v42.42a6 6 0 0 1-6 6H910.66a6 6 0 0 1-6-6z" stroke="#fff" stroke-width="3" fill="#e08fff"/><use xlink:href="#n" transform="matrix(1,0,0,1,916.6617577485483,492) translate(36.66666666666667 19.875)"/><use xlink:href="#o" transform="matrix(1,0,0,1,916.6617577485483,492) translate(82.16666666666666 19.875)"/><path d="M902.16 507.2h-112.3a6 6 0 0 1-6-6V367.4a6 6 0 0 1 6-6h15.5" stroke="#ba23f6" stroke-width="2" fill="none"/><path d="M903.16 508.2h-1.02v-2h1.02z" stroke="#ba23f6" stroke-width=".05" fill="#ba23f6"/><path d="M820.63 361.4l-14.27 4.65v-9.27z" stroke="#ba23f6" stroke-width="2" fill="#ba23f6"/><path d="M1225.96 554.77h-197.63l-.82.07-.75.18-.73.3-.67.4-.6.52-.5.6-.4.67-.3.73-.2.76-.06.8v15.47h-2v-15.53l.08-1.06.25-1.07.42-1 .58-.94.7-.84.84-.7.94-.6 1.03-.4 1.07-.26 1.05-.1h197.7zm30-194.27l1.08.25 1.02.42.93.58.83.7.7.85.6.93.4 1.02.26 1.07.08 1.05V547.8l-.1 1.07-.24 1.07-.42 1-.58.95-.7.83-.85.7-.94.58-1.02.43-1.07.26-1.05.07h-5.35v-2h5.27l.82-.06.76-.17.72-.3.67-.4.6-.52.52-.6.4-.66.3-.72.2-.76.06-.82v-180.3l-.07-.8-.17-.77-.3-.73-.4-.66-.52-.6-.6-.5-.65-.42-.73-.3-.76-.18-.82-.07h-32.96v-2h33.04z" stroke="#e81313" stroke-width=".05" fill="#e81313"/><path d="M1221.9 362.4h-1.12l.1-1-.1-1h1.12z" fill="#e81313"/><path d="M1221.93 362.44h-1.17l.1-1.03-.1-1h1.17zm-1.12-2l.1.97-.1 1h1.08v-1.96z" stroke="#e81313" stroke-width=".05" fill="#e81313"/><path d="M1022.3 590.54l-4.64-14.27h9.27z" fill="#e81313"/><path d="M1022.3 593.77l-6.02-18.5h12.02zm-3.27-16.5l3.26 10.03 3.25-10.03z" stroke="#e81313" stroke-width=".05" fill="#e81313"/><use xlink:href="#p" transform="matrix(1,0,0,1,1225.9622117967394,543.1078899249534) translate(0.005000000000000782 14.222222222222223)"/><path d="M897.5 598.88a18 18 0 0 1 10.8-3.6h228a18 18 0 0 1 10.8 3.6l70.4 52.8a4.5 4.5 0 0 1 0 7.2l-70.4 52.8a18 18 0 0 1-10.8 3.6h-228a18 18 0 0 1-10.8-3.6l-70.4-52.8a4.5 4.5 0 0 1 0-7.2z" stroke="#fff" stroke-width="3" fill="#e08fff"/><use xlink:href="#b" transform="matrix(1,0,0,1,827.2915569629172,600.27454659162) translate(21.00500000000003 60.6875)"/><use xlink:href="#c" transform="matrix(1,0,0,1,827.2915569629172,600.27454659162) translate(84.2827777777778 60.6875)"/><use xlink:href="#d" transform="matrix(1,0,0,1,827.2915569629172,600.27454659162) translate(94.22722222222224 60.6875)"/><use xlink:href="#e" transform="matrix(1,0,0,1,827.2915569629172,600.27454659162) translate(111.44944444444445 60.6875)"/><use xlink:href="#f" transform="matrix(1,0,0,1,827.2915569629172,600.27454659162) translate(133.67166666666668 60.6875)"/><use xlink:href="#c" transform="matrix(1,0,0,1,827.2915569629172,600.27454659162) translate(191.39388888888888 60.6875)"/><use xlink:href="#g" transform="matrix(1,0,0,1,827.2915569629172,600.27454659162) translate(201.33833333333334 60.6875)"/><use xlink:href="#h" transform="matrix(1,0,0,1,827.2915569629172,600.27454659162) translate(230.22722222222222 60.6875)"/><use xlink:href="#i" transform="matrix(1,0,0,1,827.2915569629172,600.27454659162) translate(252.44944444444445 60.6875)"/><use xlink:href="#j" transform="matrix(1,0,0,1,827.2915569629172,600.27454659162) translate(357.8938888888889 60.6875)"/><path d="M882.37 782.13a6 6 0 0 1 6-6h268a6 6 0 0 1 6 6v62.32a6 6 0 0 1-6 6h-268a6 6 0 0 1-6-6z" stroke="#fff" stroke-width="3" fill="#e08fff"/><use xlink:href="#k" transform="matrix(1,0,0,1,894.3702007856311,788.1250781738593) translate(9.805555555555571 28.75)"/><use xlink:href="#d" transform="matrix(1,0,0,1,894.3702007856311,788.1250781738593) translate(64.19444444444446 28.75)"/><use xlink:href="#q" transform="matrix(1,0,0,1,894.3702007856311,788.1250781738593) translate(81.41666666666667 28.75)"/><use xlink:href="#r" transform="matrix(1,0,0,1,894.3702007856311,788.1250781738593) translate(135.80555555555554 28.75)"/><use xlink:href="#o" transform="matrix(1,0,0,1,894.3702007856311,788.1250781738593) translate(153.02777777777777 28.75)"/><path d="M1023.37 735.03h-2v-17.25h2z" stroke="#008a0e" stroke-width=".05" fill="#008a0e"/><path d="M1023.37 717.8h-2v-1.02h2z" fill="#008a0e"/><path d="M1023.4 717.83h-2.05v-1.08h2.04zm-2-1.03v.98h1.95v-.98z" stroke="#008a0e" stroke-width=".05" fill="#008a0e"/><path d="M1022.37 771.4l-4.63-14.28h9.27z" fill="#008a0e"/><path d="M1022.37 774.63l-5.93-18.26h11.86zm-3.26-16.5l3.27 10.02 3.26-10.03z" stroke="#008a0e" stroke-width=".05" fill="#008a0e"/><g><use xlink:href="#m" transform="matrix(1,0,0,1,1013.9751390572361,735.0331657126236) translate(0.005000000000000782 14.222222222222223)"/></g><path d="M1235.58 870.8h-210.1l-.84.07-.76.18-.72.3-.67.4-.6.52-.5.6-.42.67-.3.72-.2.76-.05.82v15.46h-2v-15.53l.08-1.06.27-1.06.42-1 .56-.95.72-.85.83-.7.95-.58 1-.43 1.08-.25 1.06-.1h210.17zm20.3-216.44l1.08.25 1.02.43.93.58.85.72.7.84.6.94.4 1 .26 1.08.1 1.06v202.6l-.1 1.06-.24 1.07-.42 1-.58.95-.7.84-.58.48v-3.05l.07-.13.3-.72.18-.76.07-.84V661.32l-.07-.8-.18-.77-.3-.72-.4-.66-.52-.6-.6-.5-.66-.42-.73-.3-.76-.18-.82-.07h-32.96v-2h33.04z" stroke="#e81313" stroke-width=".05" fill="#e81313"/><path d="M1221.82 656.27h-1.12l.1-1-.1-1h1.12z" fill="#e81313"/><path d="M1221.85 656.3h-1.17l.1-1.02-.1-1.03h1.17zm-1.12-2l.1.98-.1.97h1.07v-1.95z" stroke="#e81313" stroke-width=".05" fill="#e81313"/><path d="M1019.43 906.57l-4.64-14.27h9.26z" fill="#e81313"/><path d="M1019.43 909.8l-6-18.5h12zm-3.26-16.5l3.26 10.03 3.26-10.03z" stroke="#e81313" stroke-width=".05" fill="#e81313"/><g><use xlink:href="#p" transform="matrix(1,0,0,1,1235.5751097302032,859.1379390452585) translate(0.005000000000000782 14.222222222222223)"/></g><path d="M879.87 813.3h-90.1a6 6 0 0 1-6-6V661.27a6 6 0 0 1 6-6h15.5" stroke="#ba23f6" stroke-width="2" fill="none"/><path d="M880.87 814.3h-1.02v-2h1.02z" stroke="#ba23f6" stroke-width=".05" fill="#ba23f6"/><path d="M820.55 655.27l-14.27 4.64v-9.26z" stroke="#ba23f6" stroke-width="2" fill="#ba23f6"/><path d="M934 917.1a7.8 7.8 0 0 1 7.55-5.8h171.3a4.6 4.6 0 0 1 4.46 5.8l-12.45 46.72a7.8 7.8 0 0 1-7.54 5.8H926a4.6 4.6 0 0 1-4.45-5.8z" stroke="#fff" stroke-width="3" fill="#e08fff"/><g><use xlink:href="#s" transform="matrix(1,0,0,1,925,916.3045653533468) translate(34.088333333333345 28.25)"/><use xlink:href="#t" transform="matrix(1,0,0,1,925,916.3045653533468) translate(106.08833333333334 28.25)"/></g><path d="M1052.34 1020c12.1 0 21.94 8.7 21.94 19.44 0 10.73-9.83 19.43-21.94 19.43h-65.82c-12.12 0-21.94-8.7-21.94-19.43 0-10.74 9.82-19.44 21.94-19.44z" stroke="#fbf0ff" stroke-width="3" fill="#e08fff"/><g><use xlink:href="#u" transform="matrix(1,0,0,1,969.5791076205385,1025) translate(35.67166666666667 17.8125)"/></g><path d="M1019.43 972.12V1000" stroke="#ba23f6" stroke-width="2" fill="none"/><path d="M1020.43 972.14h-2v-1.02h2z" stroke="#ba23f6" stroke-width=".05" fill="#ba23f6"/><path d="M1019.43 1015.26l-4.64-14.26h9.26z" stroke="#ba23f6" stroke-width="2" fill="#ba23f6"/><defs><path d="M33 0v-248h34V0H33" id="v"/><path d="M117-194c89-4 53 116 60 194h-32v-121c0-31-8-49-39-48C34-167 62-67 57 0H25l-1-190h30c1 10-1 24 2 32 11-22 29-35 61-36" id="w"/><path d="M24-231v-30h32v30H24zM24 0v-190h32V0H24" id="x"/><path d="M96-169c-40 0-48 33-48 73s9 75 48 75c24 0 41-14 43-38l32 2c-6 37-31 61-74 61-59 0-76-41-82-99-10-93 101-131 147-64 4 7 5 14 7 22l-32 3c-4-21-16-35-41-35" id="y"/><path d="M100-194c62-1 85 37 85 99 1 63-27 99-86 99S16-35 15-95c0-66 28-99 85-99zM99-20c44 1 53-31 53-75 0-43-8-75-51-75s-53 32-53 75 10 74 51 75" id="z"/><g id="a"><use transform="matrix(0.055555555555555546,0,0,0.055555555555555546,0,0)" xlink:href="#v"/><use transform="matrix(0.055555555555555546,0,0,0.055555555555555546,5.5555555555555545,0)" xlink:href="#w"/><use transform="matrix(0.055555555555555546,0,0,0.055555555555555546,16.666666666666664,0)" xlink:href="#x"/><use transform="matrix(0.055555555555555546,0,0,0.055555555555555546,21.055555555555554,0)" xlink:href="#y"/><use transform="matrix(0.055555555555555546,0,0,0.055555555555555546,31.05555555555555,0)" xlink:href="#x"/><use transform="matrix(0.055555555555555546,0,0,0.055555555555555546,35.444444444444436,0)" xlink:href="#z"/></g><path fill="#333" d="M30-248c118-7 216 8 213 122C240-48 200 0 122 0H30v-248zM63-27c89 8 146-16 146-99s-60-101-146-95v194" id="A"/><path fill="#333" d="M100-194c63 0 86 42 84 106H49c0 40 14 67 53 68 26 1 43-12 49-29l28 8c-11 28-37 45-77 45C44 4 14-33 15-96c1-61 26-98 85-98zm52 81c6-60-76-77-97-28-3 7-6 17-6 28h103" id="B"/><path fill="#333" d="M135-143c-3-34-86-38-87 0 15 53 115 12 119 90S17 21 10-45l28-5c4 36 97 45 98 0-10-56-113-15-118-90-4-57 82-63 122-42 12 7 21 19 24 35" id="C"/><path fill="#333" d="M85-194c31 0 48 13 60 33l-1-100h32l1 261h-30c-2-10 0-23-3-31C134-8 116 4 85 4 32 4 16-35 15-94c0-66 23-100 70-100zm9 24c-40 0-46 34-46 75 0 40 6 74 45 74 42 0 51-32 51-76 0-42-9-74-50-73" id="D"/><g id="b"><use transform="matrix(0.055555555555555546,0,0,0.055555555555555546,0,0)" xlink:href="#A"/><use transform="matrix(0.055555555555555546,0,0,0.055555555555555546,14.388888888888886,0)" xlink:href="#B"/><use transform="matrix(0.055555555555555546,0,0,0.055555555555555546,25.499999999999993,0)" xlink:href="#C"/><use transform="matrix(0.055555555555555546,0,0,0.055555555555555546,35.49999999999999,0)" xlink:href="#D"/><use transform="matrix(0.055555555555555546,0,0,0.055555555555555546,46.6111111111111,0)" xlink:href="#B"/></g><path fill="#333" d="M24-231v-30h32v30H24zM24 0v-190h32V0H24" id="E"/><use transform="matrix(0.055555555555555546,0,0,0.055555555555555546,0,0)" xlink:href="#E" id="c"/><path fill="#333" d="M18-150v-26h174v26H18zm0 90v-26h174v26H18" id="F"/><use transform="matrix(0.055555555555555546,0,0,0.055555555555555546,0,0)" xlink:href="#F" id="d"/><path fill="#333" d="M27 0v-27h64v-190l-56 39v-29l58-41h29v221h61V0H27" id="G"/><path fill="#333" d="M68-36c1 33-1 63-14 82H32c9-13 17-26 17-46H33v-36h35zM33-154v-36h35v36H33" id="H"/><g id="e"><use transform="matrix(0.055555555555555546,0,0,0.055555555555555546,0,0)" xlink:href="#G"/><use transform="matrix(0.055555555555555546,0,0,0.055555555555555546,11.111111111111109,0)" xlink:href="#H"/></g><path fill="#333" d="M197 0v-115H63V0H30v-248h33v105h134v-105h34V0h-34" id="I"/><path fill="#333" d="M141-36C126-15 110 5 73 4 37 3 15-17 15-53c-1-64 63-63 125-63 3-35-9-54-41-54-24 1-41 7-42 31l-33-3c5-37 33-52 76-52 45 0 72 20 72 64v82c-1 20 7 32 28 27v20c-31 9-61-2-59-35zM48-53c0 20 12 33 32 33 41-3 63-29 60-74-43 2-92-5-92 41" id="J"/><path fill="#333" d="M59-47c-2 24 18 29 38 22v24C64 9 27 4 27-40v-127H5v-23h24l9-43h21v43h35v23H59v120" id="K"/><g id="f"><use transform="matrix(0.055555555555555546,0,0,0.055555555555555546,0,0)" xlink:href="#I"/><use transform="matrix(0.055555555555555546,0,0,0.055555555555555546,14.388888888888886,0)" xlink:href="#J"/><use transform="matrix(0.055555555555555546,0,0,0.055555555555555546,25.499999999999993,0)" xlink:href="#C"/><use transform="matrix(0.055555555555555546,0,0,0.055555555555555546,35.49999999999999,0)" xlink:href="#K"/><use transform="matrix(0.055555555555555546,0,0,0.055555555555555546,41.05555555555555,0)" xlink:href="#J"/></g><g id="g"><use transform="matrix(0.055555555555555546,0,0,0.055555555555555546,0,0)" xlink:href="#F"/><use transform="matrix(0.055555555555555546,0,0,0.055555555555555546,11.666666666666664,0)" xlink:href="#F"/></g><path fill="#333" d="M54-142c48-35 137-8 131 61C196 18 31 33 14-55l32-4c7 23 22 37 52 37 35-1 51-22 54-58 4-55-73-65-99-34H22l8-134h141v27H59" id="L"/><g id="h"><use transform="matrix(0.055555555555555546,0,0,0.055555555555555546,0,0)" xlink:href="#L"/><use transform="matrix(0.055555555555555546,0,0,0.055555555555555546,11.111111111111109,0)" xlink:href="#H"/></g><path fill="#333" d="M33 0v-248h34V0H33" id="M"/><path fill="#333" d="M117-194c89-4 53 116 60 194h-32v-121c0-31-8-49-39-48C34-167 62-67 57 0H25l-1-190h30c1 10-1 24 2 32 11-22 29-35 61-36" id="N"/><path fill="#333" d="M96-169c-40 0-48 33-48 73s9 75 48 75c24 0 41-14 43-38l32 2c-6 37-31 61-74 61-59 0-76-41-82-99-10-93 101-131 147-64 4 7 5 14 7 22l-32 3c-4-21-16-35-41-35" id="O"/><path fill="#333" d="M114-163C36-179 61-72 57 0H25l-1-190h30c1 12-1 29 2 39 6-27 23-49 58-41v29" id="P"/><path fill="#333" d="M210-169c-67 3-38 105-44 169h-31v-121c0-29-5-50-35-48C34-165 62-65 56 0H25l-1-190h30c1 10-1 24 2 32 10-44 99-50 107 0 11-21 27-35 58-36 85-2 47 119 55 194h-31v-121c0-29-5-49-35-48" id="Q"/><path fill="#333" d="M100-194c62-1 85 37 85 99 1 63-27 99-86 99S16-35 15-95c0-66 28-99 85-99zM99-20c44 1 53-31 53-75 0-43-8-75-51-75s-53 32-53 75 10 74 51 75" id="R"/><g id="i"><use transform="matrix(0.055555555555555546,0,0,0.055555555555555546,0,0)" xlink:href="#M"/><use transform="matrix(0.055555555555555546,0,0,0.055555555555555546,5.5555555555555545,0)" xlink:href="#N"/><use transform="matrix(0.055555555555555546,0,0,0.055555555555555546,16.666666666666664,0)" xlink:href="#O"/><use transform="matrix(0.055555555555555546,0,0,0.055555555555555546,26.666666666666664,0)" xlink:href="#P"/><use transform="matrix(0.055555555555555546,0,0,0.055555555555555546,33.27777777777777,0)" xlink:href="#B"/><use transform="matrix(0.055555555555555546,0,0,0.055555555555555546,44.38888888888888,0)" xlink:href="#Q"/><use transform="matrix(0.055555555555555546,0,0,0.055555555555555546,60.999999999999986,0)" xlink:href="#B"/><use transform="matrix(0.055555555555555546,0,0,0.055555555555555546,72.1111111111111,0)" xlink:href="#N"/><use transform="matrix(0.055555555555555546,0,0,0.055555555555555546,83.22222222222221,0)" xlink:href="#K"/><use transform="matrix(0.055555555555555546,0,0,0.055555555555555546,88.77777777777777,0)" xlink:href="#R"/></g><use transform="matrix(0.055555555555555546,0,0,0.055555555555555546,0,0)" xlink:href="#G" id="j"/><path fill="#333" d="M84 4C-5 8 30-112 23-190h32v120c0 31 7 50 39 49 72-2 45-101 50-169h31l1 190h-30c-1-10 1-25-2-33-11 22-28 36-60 37" id="S"/><g id="k"><use transform="matrix(0.055555555555555546,0,0,0.055555555555555546,0,0)" xlink:href="#C"/><use transform="matrix(0.055555555555555546,0,0,0.055555555555555546,9.999999999999998,0)" xlink:href="#S"/><use transform="matrix(0.055555555555555546,0,0,0.055555555555555546,21.111111111111107,0)" xlink:href="#Q"/><use transform="matrix(0.055555555555555546,0,0,0.055555555555555546,37.722222222222214,0)" xlink:href="#J"/></g><path fill="#333" d="M101-251c68 0 85 55 85 127S166 4 100 4C33 4 14-52 14-124c0-73 17-127 87-127zm-1 229c47 0 54-49 54-102s-4-102-53-102c-51 0-55 48-55 102 0 53 5 102 54 102" id="T"/><use transform="matrix(0.055555555555555546,0,0,0.055555555555555546,0,0)" xlink:href="#T" id="l"/><path fill="#1071e5" d="M169-182c-1-43-94-46-97-3 18 66 151 10 154 114 3 95-165 93-204 36-6-8-10-19-12-30l50-8c3 46 112 56 116 5-17-69-150-10-154-114-4-87 153-88 188-35 5 8 8 18 10 28" id="U"/><path fill="#1071e5" d="M25 0v-190h50V0H25zm-5-208v-5l45-51h45v8l-60 48H20" id="V"/><g id="m"><use transform="matrix(0.04938271604938272,0,0,0.04938271604938272,0,0)" xlink:href="#U"/><use transform="matrix(0.04938271604938272,0,0,0.04938271604938272,11.851851851851853,0)" xlink:href="#V"/></g><path fill="#333" d="M30 0v-248h33v221h125V0H30" id="W"/><g id="n"><use transform="matrix(0.055555555555555546,0,0,0.055555555555555546,0,0)" xlink:href="#W"/><use transform="matrix(0.055555555555555546,0,0,0.055555555555555546,11.111111111111109,0)" xlink:href="#B"/><use transform="matrix(0.055555555555555546,0,0,0.055555555555555546,22.222222222222218,0)" xlink:href="#B"/><use transform="matrix(0.055555555555555546,0,0,0.055555555555555546,33.33333333333333,0)" xlink:href="#P"/></g><path fill="#333" d="M26 75v-336h71v23H56V52h41v23H26" id="X"/><path fill="#333" d="M3 75V52h41v-290H3v-23h71V75H3" id="Y"/><g id="o"><use transform="matrix(0.055555555555555546,0,0,0.055555555555555546,0,0)" xlink:href="#N"/><use transform="matrix(0.055555555555555546,0,0,0.055555555555555546,11.111111111111109,0)" xlink:href="#S"/><use transform="matrix(0.055555555555555546,0,0,0.055555555555555546,22.222222222222218,0)" xlink:href="#Q"/><use transform="matrix(0.055555555555555546,0,0,0.055555555555555546,38.83333333333333,0)" xlink:href="#B"/><use transform="matrix(0.055555555555555546,0,0,0.055555555555555546,49.944444444444436,0)" xlink:href="#P"/><use transform="matrix(0.055555555555555546,0,0,0.055555555555555546,56.55555555555554,0)" xlink:href="#R"/><use transform="matrix(0.055555555555555546,0,0,0.055555555555555546,67.66666666666666,0)" xlink:href="#C"/><use transform="matrix(0.055555555555555546,0,0,0.055555555555555546,77.66666666666666,0)" xlink:href="#X"/><use transform="matrix(0.055555555555555546,0,0,0.055555555555555546,83.22222222222221,0)" xlink:href="#E"/><use transform="matrix(0.055555555555555546,0,0,0.055555555555555546,87.6111111111111,0)" xlink:href="#Y"/></g><path fill="#1071e5" d="M175 0L67-191c6 58 2 128 3 191H24v-248h59L193-55c-6-58-2-129-3-193h46V0h-61" id="Z"/><path fill="#1071e5" d="M110-194c64 0 96 36 96 99 0 64-35 99-97 99-61 0-95-36-95-99 0-62 34-99 96-99zm-1 164c35 0 45-28 45-65 0-40-10-65-43-65-34 0-45 26-45 65 0 36 10 65 43 65" id="aa"/><g id="p"><use transform="matrix(0.04938271604938272,0,0,0.04938271604938272,0,0)" xlink:href="#Z"/><use transform="matrix(0.04938271604938272,0,0,0.04938271604938272,12.790123456790125,0)" xlink:href="#aa"/></g><g id="q"><use transform="matrix(0.055555555555555546,0,0,0.055555555555555546,0,0)" xlink:href="#C"/><use transform="matrix(0.055555555555555546,0,0,0.055555555555555546,9.999999999999998,0)" xlink:href="#S"/><use transform="matrix(0.055555555555555546,0,0,0.055555555555555546,21.111111111111107,0)" xlink:href="#Q"/><use transform="matrix(0.055555555555555546,0,0,0.055555555555555546,37.722222222222214,0)" xlink:href="#J"/></g><path fill="#333" d="M118-107v75H92v-75H18v-26h74v-75h26v75h74v26h-74" id="ab"/><use transform="matrix(0.055555555555555546,0,0,0.055555555555555546,0,0)" xlink:href="#ab" id="r"/><path fill="#333" d="M30 0v-248h187v28H63v79h144v27H63v87h162V0H30" id="ac"/><path fill="#333" d="M115-194c53 0 69 39 70 98 0 66-23 100-70 100C84 3 66-7 56-30L54 0H23l1-261h32v101c10-23 28-34 59-34zm-8 174c40 0 45-34 45-75 0-40-5-75-45-74-42 0-51 32-51 76 0 43 10 73 51 73" id="ad"/><g id="s"><use transform="matrix(0.055555555555555546,0,0,0.055555555555555546,0,0)" xlink:href="#ac"/><use transform="matrix(0.055555555555555546,0,0,0.055555555555555546,13.33333333333333,0)" xlink:href="#C"/><use transform="matrix(0.055555555555555546,0,0,0.055555555555555546,23.33333333333333,0)" xlink:href="#O"/><use transform="matrix(0.055555555555555546,0,0,0.055555555555555546,33.33333333333333,0)" xlink:href="#P"/><use transform="matrix(0.055555555555555546,0,0,0.055555555555555546,39.944444444444436,0)" xlink:href="#E"/><use transform="matrix(0.055555555555555546,0,0,0.055555555555555546,44.33333333333332,0)" xlink:href="#ad"/><use transform="matrix(0.055555555555555546,0,0,0.055555555555555546,55.44444444444443,0)" xlink:href="#E"/><use transform="matrix(0.055555555555555546,0,0,0.055555555555555546,59.83333333333331,0)" xlink:href="#P"/></g><g id="t"><use transform="matrix(0.055555555555555546,0,0,0.055555555555555546,0,0)" xlink:href="#C"/><use transform="matrix(0.055555555555555546,0,0,0.055555555555555546,9.999999999999998,0)" xlink:href="#S"/><use transform="matrix(0.055555555555555546,0,0,0.055555555555555546,21.111111111111107,0)" xlink:href="#Q"/><use transform="matrix(0.055555555555555546,0,0,0.055555555555555546,37.722222222222214,0)" xlink:href="#J"/></g><path d="M63-220v92h138v28H63V0H30v-248h175v28H63" id="ae"/><g id="u"><use transform="matrix(0.055555555555555546,0,0,0.055555555555555546,0,0)" xlink:href="#ae"/><use transform="matrix(0.055555555555555546,0,0,0.055555555555555546,12.166666666666664,0)" xlink:href="#x"/><use transform="matrix(0.055555555555555546,0,0,0.055555555555555546,16.555555555555554,0)" xlink:href="#w"/></g></defs></g></svg>