<svg xmlns="http://www.w3.org/2000/svg" xmlns:xlink="http://www.w3.org/1999/xlink" xmlns:lucid="lucid" width="627.27" height="1025.49"><g transform="translate(-677 -100)" lucid:page-tab-id="0_0"><path d="M1058.8 120c13.45 0 24.35 13.05 24.35 29.16 0 16.1-10.9 29.15-24.34 29.15H985.8c-13.45 0-24.35-13.04-24.35-29.14S972.33 120 985.78 120z" stroke="#fbf0ff" stroke-width="3" fill="#e08fff"/><use xlink:href="#a" transform="matrix(1,0,0,1,966.4322231018232,125) translate(32.72222222222223 28.25)"/><path d="M1022.3 180.8v12.47" stroke="#ba23f6" stroke-width="2" fill="none"/><path d="M1023.3 180.84h-2v-1.03h2z" stroke="#ba23f6" stroke-width=".05" fill="#ba23f6"/><path d="M1022.4 208.42l-4.74-14.24 9.27-.06z" stroke="#ba23f6" stroke-width="2" fill="#ba23f6"/><path d="M1022.4 287.66V300" stroke="#ba23f6" stroke-width="2" fill="none"/><path d="M1023.4 287.68h-2v-1.02h2z" stroke="#ba23f6" stroke-width=".05" fill="#ba23f6"/><path d="M1022.4 315.26l-4.63-14.26h9.28z" stroke="#ba23f6" stroke-width="2" fill="#ba23f6"/><path d="M880.1 323.3a20.1 20.1 0 0 1 11.03-3.3h262.56a20.1 20.1 0 0 1 11 3.3l81.5 53.4a3.93 3.93 0 0 1 0 6.6l-81.5 53.4a20.1 20.1 0 0 1-11 3.3H891.12a20.1 20.1 0 0 1-11-3.3l-81.5-53.4a3.93 3.93 0 0 1 0-6.6z" stroke="#fff" stroke-width="3" fill="#e08fff"/><use xlink:href="#b" transform="matrix(1,0,0,1,798.6142840454822,325) translate(55.33833333333335 60.6875)"/><use xlink:href="#c" transform="matrix(1,0,0,1,798.6142840454822,325) translate(118.61611111111111 60.6875)"/><use xlink:href="#d" transform="matrix(1,0,0,1,798.6142840454822,325) translate(128.56055555555554 60.6875)"/><use xlink:href="#e" transform="matrix(1,0,0,1,798.6142840454822,325) translate(145.78277777777777 60.6875)"/><use xlink:href="#f" transform="matrix(1,0,0,1,798.6142840454822,325) translate(168.005 60.6875)"/><use xlink:href="#c" transform="matrix(1,0,0,1,798.6142840454822,325) translate(225.7272222222222 60.6875)"/><use xlink:href="#g" transform="matrix(1,0,0,1,798.6142840454822,325) translate(235.67166666666665 60.6875)"/><use xlink:href="#h" transform="matrix(1,0,0,1,798.6142840454822,325) translate(252.89388888888888 60.6875)"/><use xlink:href="#i" transform="matrix(1,0,0,1,798.6142840454822,325) translate(275.1161111111111 60.6875)"/><use xlink:href="#j" transform="matrix(1,0,0,1,798.6142840454822,325) translate(380.56055555555554 60.6875)"/><path d="M946.05 219.16a6 6 0 0 1 6-6h140.7a6 6 0 0 1 6 6v60a6 6 0 0 1-6 6h-140.7a6 6 0 0 1-6-6z" stroke="#fff" stroke-width="3" fill="#e08fff"/><use xlink:href="#k" transform="matrix(1,0,0,1,958.0553011784469,225.15572232645403) translate(23.138888888888893 28)"/><use xlink:href="#d" transform="matrix(1,0,0,1,958.0553011784469,225.15572232645403) translate(77.52777777777777 28)"/><use xlink:href="#l" transform="matrix(1,0,0,1,958.0553011784469,225.15572232645403) translate(94.75 28)"/><path d="M1023.4 459.33h-2V442.5h2z" stroke="#008a0e" stroke-width=".05" fill="#008a0e"/><path d="M1023.4 442.53h-2v-1.03h2z" fill="#008a0e"/><path d="M1023.43 442.55h-2.04v-1.07h2.03zm-2-1.03v.98h1.96v-.98z" stroke="#008a0e" stroke-width=".05" fill="#008a0e"/><path d="M1022.4 495.26l-4.63-14.26h9.28z" fill="#008a0e"/><path d="M1022.4 498.5l-5.78-17.83h11.58zm-3.25-16.5l3.26 10.03 3.27-10.03z" stroke="#008a0e" stroke-width=".05" fill="#008a0e"/><use xlink:href="#m" transform="matrix(1,0,0,1,1014.0144609685932,459.3333333333333) translate(0.005000000000000782 14.222222222222223)"/><path d="M1022.4 754.5v46.38" stroke="#ba23f6" stroke-width="2" fill="none"/><path d="M1023.4 754.53h-2v-1.03h2z" stroke="#ba23f6" stroke-width=".05" fill="#ba23f6"/><path d="M1022.4 816.14l-4.63-14.26h9.28z" stroke="#ba23f6" stroke-width="2" fill="#ba23f6"/><path d="M1290.47 914.3l-.08 1.05-.27 1.07-.42 1.02-.56.93-.72.84-.83.72-.95.58-1.02.42-1.06.26-1.06.08h-255.05l-.82.06-.77.2-.72.3-.67.4-.6.5-.5.6-.4.67-.3.72-.2.76-.06.82v15.46h-2v-15.54l.1-1.06.25-1.06.42-1.02.57-.94.72-.83.83-.7.93-.58 1-.42 1.08-.26 1.07-.08h255.06l.82-.07.77-.2.72-.3.67-.4.6-.5.5-.6.42-.67.3-.73.2-.76.05-.82v-119.9h2zm-5.9-535.22l1.07.26 1 .42.95.57.82.72.72.83.57.94.43 1.02.26 1.06.07 1.06V773h-2V386.03l-.06-.82-.18-.76-.3-.73-.4-.67-.5-.6-.6-.5-.68-.4-.72-.3-.77-.2-.82-.06h-32.96v-2h33.04z" stroke="#e81313" stroke-width=".05" fill="#e81313"/><path d="M1250.5 381h-1.13l.1-1-.1-1h1.13z" fill="#e81313"/><path d="M1250.52 381.02h-1.18l.1-1.02-.1-1.02h1.18zm-1.12-2l.1.98-.1.98h1.07v-1.96z" stroke="#e81313" stroke-width=".05" fill="#e81313"/><path d="M1022.4 957.02l-4.63-14.26h9.28z" fill="#e81313"/><path d="M1022.4 960.26l-6-18.5h12.02zm-3.25-16.5l3.26 10.03 3.27-10.04z" stroke="#e81313" stroke-width=".05" fill="#e81313"/><use xlink:href="#n" transform="matrix(1,0,0,1,1277.6687723853076,772.9935124869093) translate(0.005000000000000782 14.222222222222223)"/><path d="M937 967.56a7.8 7.8 0 0 1 7.53-5.8h171.3a4.6 4.6 0 0 1 4.46 5.8l-12.47 46.7a7.8 7.8 0 0 1-7.54 5.8H928.97a4.6 4.6 0 0 1-4.45-5.8z" stroke="#fff" stroke-width="3" fill="#e08fff"/><use xlink:href="#o" transform="matrix(1,0,0,1,927.9824119377176,966.7585991244518) translate(34.088333333333345 28.25)"/><use xlink:href="#p" transform="matrix(1,0,0,1,927.9824119377176,966.7585991244518) translate(106.08833333333334 28.25)"/><path d="M1055.32 1066.62c12.12 0 21.94 8.7 21.94 19.44 0 10.73-9.83 19.43-21.94 19.43H989.5c-12.12 0-21.94-8.7-21.94-19.44 0-10.74 9.82-19.44 21.94-19.44z" stroke="#fbf0ff" stroke-width="3" fill="#e08fff"/><use xlink:href="#q" transform="matrix(1,0,0,1,972.5615195582561,1071.6203877423377) translate(35.67166666666667 17.8125)"/><path d="M1022.4 1022.57v24.05" stroke="#ba23f6" stroke-width="2" fill="none"/><path d="M1023.4 1022.6h-2v-1.03h2z" stroke="#ba23f6" stroke-width=".05" fill="#ba23f6"/><path d="M1022.4 1061.88l-4.63-14.26h9.28z" stroke="#ba23f6" stroke-width="2" fill="#ba23f6"/><path d="M880.1 503.3a20.1 20.1 0 0 1 11.03-3.3h262.56a20.1 20.1 0 0 1 11 3.3l81.5 53.4a3.93 3.93 0 0 1 0 6.6l-81.5 53.4a20.1 20.1 0 0 1-11 3.3H891.12a20.1 20.1 0 0 1-11-3.3l-81.5-53.4a3.93 3.93 0 0 1 0-6.6z" stroke="#fff" stroke-width="3" fill="#e08fff"/><use xlink:href="#b" transform="matrix(1,0,0,1,798.6142840454822,505) translate(55.33833333333335 60.6875)"/><use xlink:href="#r" transform="matrix(1,0,0,1,798.6142840454822,505) translate(118.61611111111111 60.6875)"/><use xlink:href="#d" transform="matrix(1,0,0,1,798.6142840454822,505) translate(128.56055555555554 60.6875)"/><use xlink:href="#e" transform="matrix(1,0,0,1,798.6142840454822,505) translate(145.78277777777777 60.6875)"/><use xlink:href="#f" transform="matrix(1,0,0,1,798.6142840454822,505) translate(168.005 60.6875)"/><use xlink:href="#r" transform="matrix(1,0,0,1,798.6142840454822,505) translate(225.7272222222222 60.6875)"/><use xlink:href="#g" transform="matrix(1,0,0,1,798.6142840454822,505) translate(235.67166666666665 60.6875)"/><use xlink:href="#h" transform="matrix(1,0,0,1,798.6142840454822,505) translate(252.89388888888888 60.6875)"/><use xlink:href="#i" transform="matrix(1,0,0,1,798.6142840454822,505) translate(275.1161111111111 60.6875)"/><use xlink:href="#j" transform="matrix(1,0,0,1,798.6142840454822,505) translate(380.56055555555554 60.6875)"/><path d="M932.07 686a6 6 0 0 1 6-6h168.68a6 6 0 0 1 6 6v60a6 6 0 0 1-6 6H938.07a6 6 0 0 1-6-6z" stroke="#fff" stroke-width="3" fill="#e08fff"/><g><use xlink:href="#s" transform="matrix(1,0,0,1,944.0681698758386,692) translate(2.0000000000000284 28)"/><use xlink:href="#t" transform="matrix(1,0,0,1,944.0681698758386,692) translate(47.50000000000002 28)"/><use xlink:href="#c" transform="matrix(1,0,0,1,944.0681698758386,692) translate(112.88888888888889 28)"/><use xlink:href="#u" transform="matrix(1,0,0,1,944.0681698758386,692) translate(122.83333333333333 28)"/><use xlink:href="#r" transform="matrix(1,0,0,1,944.0681698758386,692) translate(139.5 28)"/><use xlink:href="#v" transform="matrix(1,0,0,1,944.0681698758386,692) translate(149.44444444444443 28)"/></g><path d="M1023.4 639.33h-2V622.5h2z" stroke="#008a0e" stroke-width=".05" fill="#008a0e"/><path d="M1023.4 622.53h-2v-1.03h2z" fill="#008a0e"/><path d="M1023.43 622.55h-2.04v-1.07h2.03zm-2-1.02v.97h1.96v-.98z" stroke="#008a0e" stroke-width=".05" fill="#008a0e"/><path d="M1022.4 675.26l-4.63-14.26h9.28z" fill="#008a0e"/><path d="M1022.4 678.5l-5.78-17.83h11.58zm-3.25-16.5l3.26 10.03 3.27-10.03z" stroke="#008a0e" stroke-width=".05" fill="#008a0e"/><g><use xlink:href="#w" transform="matrix(1,0,0,1,1014.0144609685932,639.3333543333333) translate(0.005000000000000782 14.222222222222223)"/></g><path d="M877.64 826.88a6 6 0 0 1 6-6h277.54a6 6 0 0 1 6 6v60a6 6 0 0 1-6 6H883.64a6 6 0 0 1-6-6z" stroke="#fff" stroke-width="3" fill="#e08fff"/><g><use xlink:href="#k" transform="matrix(1,0,0,1,889.6412193077238,832.8792995622259) translate(7.638888888888914 28)"/><use xlink:href="#d" transform="matrix(1,0,0,1,889.6412193077238,832.8792995622259) translate(62.02777777777779 28)"/><use xlink:href="#x" transform="matrix(1,0,0,1,889.6412193077238,832.8792995622259) translate(79.25000000000001 28)"/><use xlink:href="#y" transform="matrix(1,0,0,1,889.6412193077238,832.8792995622259) translate(133.63888888888889 28)"/><use xlink:href="#t" transform="matrix(1,0,0,1,889.6412193077238,832.8792995622259) translate(150.86111111111111 28)"/><use xlink:href="#c" transform="matrix(1,0,0,1,889.6412193077238,832.8792995622259) translate(216.25 28)"/><use xlink:href="#u" transform="matrix(1,0,0,1,889.6412193077238,832.8792995622259) translate(226.19444444444446 28)"/><use xlink:href="#r" transform="matrix(1,0,0,1,889.6412193077238,832.8792995622259) translate(242.86111111111111 28)"/><use xlink:href="#v" transform="matrix(1,0,0,1,889.6412193077238,832.8792995622259) translate(252.80555555555554 28)"/></g><path d="M776.85 381h-70.8l-.83.06-.76.2-.73.3-.67.4-.6.5-.5.6-.4.67-.3.73-.2.76-.06.82v464.8l.07.82.18.76.3.73.4.67.52.6.6.5.66.4.73.3.76.2.82.06h169.1v2H705.96l-1.06-.08-1.06-.26-1.02-.42-.94-.58-.83-.7-.72-.84-.57-.94-.42-1.02-.26-1.06-.08-1.06V385.96l.08-1.06.26-1.06.42-1.02.57-.94.72-.83.83-.72.94-.57 1.02-.42 1.06-.26 1.06-.08h70.9z" stroke="#ba23f6" stroke-width=".05" fill="#ba23f6"/><path d="M876.14 857.88h-1.02v-2h1.02z" fill="#ba23f6"/><path d="M876.17 857.9h-1.08v-2.05h1.07zm-1.03-2v1.95h.98v-1.95z" stroke="#ba23f6" stroke-width=".05" fill="#ba23f6"/><path d="M792.1 380l-14.25 4.63v-9.26z" fill="#ba23f6"/><path d="M795.35 380l-18.5 6v-12zm-16.5 3.26l10.03-3.26-10.03-3.26z" stroke="#ba23f6" stroke-width=".05" fill="#ba23f6"/><path d="M735.87 561H718.5v-2h17.37zm58.48 0h-34.87v-2h34.87z" stroke="#e81313" stroke-width=".05" fill="#e81313"/><path d="M795.35 560l.1 1h-1.13v-2h1.13z" fill="#e81313"/><path d="M795.37 560l.1 1.02h-1.17V559h1.18zm-1.02-.98V561h1.07l-.1-.98.1-.98z" stroke="#e81313" stroke-width=".05" fill="#e81313"/><path d="M717.5 564.63L703.24 560l14.26-4.63z" fill="#e81313"/><path d="M718.5 566l-18.5-6 18.5-6zm-12.03-6l10.03 3.26v-6.52z" stroke="#e81313" stroke-width=".05" fill="#e81313"/><g><use xlink:href="#n" transform="matrix(1,0,0,1,735.871433244915,549.3333333333334) translate(0.005000000000000782 14.222222222222223)"/></g><defs><path d="M33 0v-248h34V0H33" id="z"/><path d="M117-194c89-4 53 116 60 194h-32v-121c0-31-8-49-39-48C34-167 62-67 57 0H25l-1-190h30c1 10-1 24 2 32 11-22 29-35 61-36" id="A"/><path d="M24-231v-30h32v30H24zM24 0v-190h32V0H24" id="B"/><path d="M96-169c-40 0-48 33-48 73s9 75 48 75c24 0 41-14 43-38l32 2c-6 37-31 61-74 61-59 0-76-41-82-99-10-93 101-131 147-64 4 7 5 14 7 22l-32 3c-4-21-16-35-41-35" id="C"/><path d="M100-194c62-1 85 37 85 99 1 63-27 99-86 99S16-35 15-95c0-66 28-99 85-99zM99-20c44 1 53-31 53-75 0-43-8-75-51-75s-53 32-53 75 10 74 51 75" id="D"/><g id="a"><use transform="matrix(0.055555555555555546,0,0,0.055555555555555546,0,0)" xlink:href="#z"/><use transform="matrix(0.055555555555555546,0,0,0.055555555555555546,5.5555555555555545,0)" xlink:href="#A"/><use transform="matrix(0.055555555555555546,0,0,0.055555555555555546,16.666666666666664,0)" xlink:href="#B"/><use transform="matrix(0.055555555555555546,0,0,0.055555555555555546,21.055555555555554,0)" xlink:href="#C"/><use transform="matrix(0.055555555555555546,0,0,0.055555555555555546,31.05555555555555,0)" xlink:href="#B"/><use transform="matrix(0.055555555555555546,0,0,0.055555555555555546,35.444444444444436,0)" xlink:href="#D"/></g><path fill="#333" d="M30-248c118-7 216 8 213 122C240-48 200 0 122 0H30v-248zM63-27c89 8 146-16 146-99s-60-101-146-95v194" id="E"/><path fill="#333" d="M100-194c63 0 86 42 84 106H49c0 40 14 67 53 68 26 1 43-12 49-29l28 8c-11 28-37 45-77 45C44 4 14-33 15-96c1-61 26-98 85-98zm52 81c6-60-76-77-97-28-3 7-6 17-6 28h103" id="F"/><path fill="#333" d="M135-143c-3-34-86-38-87 0 15 53 115 12 119 90S17 21 10-45l28-5c4 36 97 45 98 0-10-56-113-15-118-90-4-57 82-63 122-42 12 7 21 19 24 35" id="G"/><path fill="#333" d="M85-194c31 0 48 13 60 33l-1-100h32l1 261h-30c-2-10 0-23-3-31C134-8 116 4 85 4 32 4 16-35 15-94c0-66 23-100 70-100zm9 24c-40 0-46 34-46 75 0 40 6 74 45 74 42 0 51-32 51-76 0-42-9-74-50-73" id="H"/><g id="b"><use transform="matrix(0.055555555555555546,0,0,0.055555555555555546,0,0)" xlink:href="#E"/><use transform="matrix(0.055555555555555546,0,0,0.055555555555555546,14.388888888888886,0)" xlink:href="#F"/><use transform="matrix(0.055555555555555546,0,0,0.055555555555555546,25.499999999999993,0)" xlink:href="#G"/><use transform="matrix(0.055555555555555546,0,0,0.055555555555555546,35.49999999999999,0)" xlink:href="#H"/><use transform="matrix(0.055555555555555546,0,0,0.055555555555555546,46.6111111111111,0)" xlink:href="#F"/></g><path fill="#333" d="M24-231v-30h32v30H24zM24 0v-190h32V0H24" id="I"/><use transform="matrix(0.055555555555555546,0,0,0.055555555555555546,0,0)" xlink:href="#I" id="c"/><path fill="#333" d="M18-150v-26h174v26H18zm0 90v-26h174v26H18" id="J"/><use transform="matrix(0.055555555555555546,0,0,0.055555555555555546,0,0)" xlink:href="#J" id="d"/><path fill="#333" d="M101-251c68 0 85 55 85 127S166 4 100 4C33 4 14-52 14-124c0-73 17-127 87-127zm-1 229c47 0 54-49 54-102s-4-102-53-102c-51 0-55 48-55 102 0 53 5 102 54 102" id="K"/><path fill="#333" d="M68-36c1 33-1 63-14 82H32c9-13 17-26 17-46H33v-36h35zM33-154v-36h35v36H33" id="L"/><g id="e"><use transform="matrix(0.055555555555555546,0,0,0.055555555555555546,0,0)" xlink:href="#K"/><use transform="matrix(0.055555555555555546,0,0,0.055555555555555546,11.111111111111109,0)" xlink:href="#L"/></g><path fill="#333" d="M197 0v-115H63V0H30v-248h33v105h134v-105h34V0h-34" id="M"/><path fill="#333" d="M141-36C126-15 110 5 73 4 37 3 15-17 15-53c-1-64 63-63 125-63 3-35-9-54-41-54-24 1-41 7-42 31l-33-3c5-37 33-52 76-52 45 0 72 20 72 64v82c-1 20 7 32 28 27v20c-31 9-61-2-59-35zM48-53c0 20 12 33 32 33 41-3 63-29 60-74-43 2-92-5-92 41" id="N"/><path fill="#333" d="M59-47c-2 24 18 29 38 22v24C64 9 27 4 27-40v-127H5v-23h24l9-43h21v43h35v23H59v120" id="O"/><g id="f"><use transform="matrix(0.055555555555555546,0,0,0.055555555555555546,0,0)" xlink:href="#M"/><use transform="matrix(0.055555555555555546,0,0,0.055555555555555546,14.388888888888886,0)" xlink:href="#N"/><use transform="matrix(0.055555555555555546,0,0,0.055555555555555546,25.499999999999993,0)" xlink:href="#G"/><use transform="matrix(0.055555555555555546,0,0,0.055555555555555546,35.49999999999999,0)" xlink:href="#O"/><use transform="matrix(0.055555555555555546,0,0,0.055555555555555546,41.05555555555555,0)" xlink:href="#N"/></g><path fill="#333" d="M18-100v-36l175-74v27L42-118l151 64v27" id="P"/><use transform="matrix(0.055555555555555546,0,0,0.055555555555555546,0,0)" xlink:href="#P" id="g"/><path fill="#333" d="M126-127c33 6 58 20 58 59 0 88-139 92-164 29-3-8-5-16-6-25l32-3c6 27 21 44 54 44 32 0 52-15 52-46 0-38-36-46-79-43v-28c39 1 72-4 72-42 0-27-17-43-46-43-28 0-47 15-49 41l-32-3c6-42 35-63 81-64 48-1 79 21 79 65 0 36-21 52-52 59" id="Q"/><g id="h"><use transform="matrix(0.055555555555555546,0,0,0.055555555555555546,0,0)" xlink:href="#Q"/><use transform="matrix(0.055555555555555546,0,0,0.055555555555555546,11.111111111111109,0)" xlink:href="#L"/></g><path fill="#333" d="M33 0v-248h34V0H33" id="R"/><path fill="#333" d="M117-194c89-4 53 116 60 194h-32v-121c0-31-8-49-39-48C34-167 62-67 57 0H25l-1-190h30c1 10-1 24 2 32 11-22 29-35 61-36" id="S"/><path fill="#333" d="M96-169c-40 0-48 33-48 73s9 75 48 75c24 0 41-14 43-38l32 2c-6 37-31 61-74 61-59 0-76-41-82-99-10-93 101-131 147-64 4 7 5 14 7 22l-32 3c-4-21-16-35-41-35" id="T"/><path fill="#333" d="M114-163C36-179 61-72 57 0H25l-1-190h30c1 12-1 29 2 39 6-27 23-49 58-41v29" id="U"/><path fill="#333" d="M210-169c-67 3-38 105-44 169h-31v-121c0-29-5-50-35-48C34-165 62-65 56 0H25l-1-190h30c1 10-1 24 2 32 10-44 99-50 107 0 11-21 27-35 58-36 85-2 47 119 55 194h-31v-121c0-29-5-49-35-48" id="V"/><path fill="#333" d="M100-194c62-1 85 37 85 99 1 63-27 99-86 99S16-35 15-95c0-66 28-99 85-99zM99-20c44 1 53-31 53-75 0-43-8-75-51-75s-53 32-53 75 10 74 51 75" id="W"/><g id="i"><use transform="matrix(0.055555555555555546,0,0,0.055555555555555546,0,0)" xlink:href="#R"/><use transform="matrix(0.055555555555555546,0,0,0.055555555555555546,5.5555555555555545,0)" xlink:href="#S"/><use transform="matrix(0.055555555555555546,0,0,0.055555555555555546,16.666666666666664,0)" xlink:href="#T"/><use transform="matrix(0.055555555555555546,0,0,0.055555555555555546,26.666666666666664,0)" xlink:href="#U"/><use transform="matrix(0.055555555555555546,0,0,0.055555555555555546,33.27777777777777,0)" xlink:href="#F"/><use transform="matrix(0.055555555555555546,0,0,0.055555555555555546,44.38888888888888,0)" xlink:href="#V"/><use transform="matrix(0.055555555555555546,0,0,0.055555555555555546,60.999999999999986,0)" xlink:href="#F"/><use transform="matrix(0.055555555555555546,0,0,0.055555555555555546,72.1111111111111,0)" xlink:href="#S"/><use transform="matrix(0.055555555555555546,0,0,0.055555555555555546,83.22222222222221,0)" xlink:href="#O"/><use transform="matrix(0.055555555555555546,0,0,0.055555555555555546,88.77777777777777,0)" xlink:href="#W"/></g><path fill="#333" d="M27 0v-27h64v-190l-56 39v-29l58-41h29v221h61V0H27" id="X"/><use transform="matrix(0.055555555555555546,0,0,0.055555555555555546,0,0)" xlink:href="#X" id="j"/><path fill="#333" d="M84 4C-5 8 30-112 23-190h32v120c0 31 7 50 39 49 72-2 45-101 50-169h31l1 190h-30c-1-10 1-25-2-33-11 22-28 36-60 37" id="Y"/><g id="k"><use transform="matrix(0.055555555555555546,0,0,0.055555555555555546,0,0)" xlink:href="#G"/><use transform="matrix(0.055555555555555546,0,0,0.055555555555555546,9.999999999999998,0)" xlink:href="#Y"/><use transform="matrix(0.055555555555555546,0,0,0.055555555555555546,21.111111111111107,0)" xlink:href="#V"/><use transform="matrix(0.055555555555555546,0,0,0.055555555555555546,37.722222222222214,0)" xlink:href="#N"/></g><use transform="matrix(0.055555555555555546,0,0,0.055555555555555546,0,0)" xlink:href="#K" id="l"/><path fill="#1071e5" d="M169-182c-1-43-94-46-97-3 18 66 151 10 154 114 3 95-165 93-204 36-6-8-10-19-12-30l50-8c3 46 112 56 116 5-17-69-150-10-154-114-4-87 153-88 188-35 5 8 8 18 10 28" id="Z"/><path fill="#1071e5" d="M25 0v-190h50V0H25zm-5-208v-5l45-51h45v8l-60 48H20" id="aa"/><g id="m"><use transform="matrix(0.04938271604938272,0,0,0.04938271604938272,0,0)" xlink:href="#Z"/><use transform="matrix(0.04938271604938272,0,0,0.04938271604938272,11.851851851851853,0)" xlink:href="#aa"/></g><path fill="#1071e5" d="M175 0L67-191c6 58 2 128 3 191H24v-248h59L193-55c-6-58-2-129-3-193h46V0h-61" id="ab"/><path fill="#1071e5" d="M110-194c64 0 96 36 96 99 0 64-35 99-97 99-61 0-95-36-95-99 0-62 34-99 96-99zm-1 164c35 0 45-28 45-65 0-40-10-65-43-65-34 0-45 26-45 65 0 36 10 65 43 65" id="ac"/><g id="n"><use transform="matrix(0.04938271604938272,0,0,0.04938271604938272,0,0)" xlink:href="#ab"/><use transform="matrix(0.04938271604938272,0,0,0.04938271604938272,12.790123456790125,0)" xlink:href="#ac"/></g><path fill="#333" d="M30 0v-248h187v28H63v79h144v27H63v87h162V0H30" id="ad"/><path fill="#333" d="M115-194c53 0 69 39 70 98 0 66-23 100-70 100C84 3 66-7 56-30L54 0H23l1-261h32v101c10-23 28-34 59-34zm-8 174c40 0 45-34 45-75 0-40-5-75-45-74-42 0-51 32-51 76 0 43 10 73 51 73" id="ae"/><g id="o"><use transform="matrix(0.055555555555555546,0,0,0.055555555555555546,0,0)" xlink:href="#ad"/><use transform="matrix(0.055555555555555546,0,0,0.055555555555555546,13.33333333333333,0)" xlink:href="#G"/><use transform="matrix(0.055555555555555546,0,0,0.055555555555555546,23.33333333333333,0)" xlink:href="#T"/><use transform="matrix(0.055555555555555546,0,0,0.055555555555555546,33.33333333333333,0)" xlink:href="#U"/><use transform="matrix(0.055555555555555546,0,0,0.055555555555555546,39.944444444444436,0)" xlink:href="#I"/><use transform="matrix(0.055555555555555546,0,0,0.055555555555555546,44.33333333333332,0)" xlink:href="#ae"/><use transform="matrix(0.055555555555555546,0,0,0.055555555555555546,55.44444444444443,0)" xlink:href="#I"/><use transform="matrix(0.055555555555555546,0,0,0.055555555555555546,59.83333333333331,0)" xlink:href="#U"/></g><g id="p"><use transform="matrix(0.055555555555555546,0,0,0.055555555555555546,0,0)" xlink:href="#G"/><use transform="matrix(0.055555555555555546,0,0,0.055555555555555546,9.999999999999998,0)" xlink:href="#Y"/><use transform="matrix(0.055555555555555546,0,0,0.055555555555555546,21.111111111111107,0)" xlink:href="#V"/><use transform="matrix(0.055555555555555546,0,0,0.055555555555555546,37.722222222222214,0)" xlink:href="#N"/></g><path d="M63-220v92h138v28H63V0H30v-248h175v28H63" id="af"/><g id="q"><use transform="matrix(0.055555555555555546,0,0,0.055555555555555546,0,0)" xlink:href="#af"/><use transform="matrix(0.055555555555555546,0,0,0.055555555555555546,12.166666666666664,0)" xlink:href="#B"/><use transform="matrix(0.055555555555555546,0,0,0.055555555555555546,16.555555555555554,0)" xlink:href="#A"/></g><path fill="#333" d="M24-231v-30h32v30H24zM-9 49c24 4 33-6 33-30v-209h32V24c2 40-23 58-65 49V49" id="ag"/><use transform="matrix(0.055555555555555546,0,0,0.055555555555555546,0,0)" xlink:href="#ag" id="r"/><path fill="#333" d="M30 0v-248h33v221h125V0H30" id="ah"/><g id="s"><use transform="matrix(0.055555555555555546,0,0,0.055555555555555546,0,0)" xlink:href="#ah"/><use transform="matrix(0.055555555555555546,0,0,0.055555555555555546,11.111111111111109,0)" xlink:href="#F"/><use transform="matrix(0.055555555555555546,0,0,0.055555555555555546,22.222222222222218,0)" xlink:href="#F"/><use transform="matrix(0.055555555555555546,0,0,0.055555555555555546,33.33333333333333,0)" xlink:href="#U"/></g><path fill="#333" d="M9 0v-24l116-142H16v-24h144v24L44-24h123V0H9" id="ai"/><path fill="#333" d="M26 75v-336h71v23H56V52h41v23H26" id="aj"/><g id="t"><use transform="matrix(0.055555555555555546,0,0,0.055555555555555546,0,0)" xlink:href="#V"/><use transform="matrix(0.055555555555555546,0,0,0.055555555555555546,16.611111111111107,0)" xlink:href="#N"/><use transform="matrix(0.055555555555555546,0,0,0.055555555555555546,27.722222222222214,0)" xlink:href="#O"/><use transform="matrix(0.055555555555555546,0,0,0.055555555555555546,33.27777777777777,0)" xlink:href="#U"/><use transform="matrix(0.055555555555555546,0,0,0.055555555555555546,39.88888888888888,0)" xlink:href="#I"/><use transform="matrix(0.055555555555555546,0,0,0.055555555555555546,44.277777777777764,0)" xlink:href="#ai"/><use transform="matrix(0.055555555555555546,0,0,0.055555555555555546,54.277777777777764,0)" xlink:href="#aj"/></g><path fill="#333" d="M3 75V52h41v-290H3v-23h71V75H3" id="ak"/><g id="u"><use transform="matrix(0.055555555555555546,0,0,0.055555555555555546,0,0)" xlink:href="#ak"/><use transform="matrix(0.055555555555555546,0,0,0.055555555555555546,5.5555555555555545,0)" xlink:href="#aj"/></g><use transform="matrix(0.055555555555555546,0,0,0.055555555555555546,0,0)" xlink:href="#ak" id="v"/><g id="w"><use transform="matrix(0.04938271604938272,0,0,0.04938271604938272,0,0)" xlink:href="#Z"/><use transform="matrix(0.04938271604938272,0,0,0.04938271604938272,11.851851851851853,0)" xlink:href="#aa"/></g><g id="x"><use transform="matrix(0.055555555555555546,0,0,0.055555555555555546,0,0)" xlink:href="#G"/><use transform="matrix(0.055555555555555546,0,0,0.055555555555555546,9.999999999999998,0)" xlink:href="#Y"/><use transform="matrix(0.055555555555555546,0,0,0.055555555555555546,21.111111111111107,0)" xlink:href="#V"/><use transform="matrix(0.055555555555555546,0,0,0.055555555555555546,37.722222222222214,0)" xlink:href="#N"/></g><path fill="#333" d="M118-107v75H92v-75H18v-26h74v-75h26v75h74v26h-74" id="al"/><use transform="matrix(0.055555555555555546,0,0,0.055555555555555546,0,0)" xlink:href="#al" id="y"/></defs></g></svg>